<svg t="1660120296468" class="icon" viewBox="0 0 1025 1024" version="1.1" xmlns="http://www.w3.org/2000/svg" p-id="1236" width="200" height="200"><path d="M831.569514 785.870275l-104.179358-104.179358 24.92635-14.061017A31.956858 31.956858 0 0 0 767.655798 639.827433v-255.654866a31.956858 31.956858 0 0 0-15.978429-27.802467l-24.92635-14.061017L831.569514 238.129725A127.827433 127.827433 0 1 0 785.871207 192.431418l-116.642533 116.962101-141.249313-80.850852a31.956858 31.956858 0 0 0-31.956858 0l-141.249314 80.850852L238.130657 192.431418A127.827433 127.827433 0 1 0 192.432349 238.129725l104.179358 104.179358-24.926349 14.061017A31.956858 31.956858 0 0 0 256.346066 384.172567v63.913717a31.956858 31.956858 0 0 0 63.913716 0v-45.378739l191.74115-109.612024 191.741149 109.612024v218.58491l-191.741149 109.612024-191.74115-109.612024V575.913716a31.956858 31.956858 0 0 0-63.913716 0v63.913717a31.956858 31.956858 0 0 0 15.978429 27.802467l24.926349 14.061017L192.432349 785.870275A127.827433 127.827433 0 1 0 238.130657 831.568582l116.642532-116.322964C506.887835 801.529136 500.176894 799.611724 512.000932 799.611724s3.834823 2.556549 157.227742-85.005243L785.871207 831.568582A127.827433 127.827433 0 1 0 831.569514 785.870275zM895.483231 64.603985a63.913716 63.913716 0 1 1-63.913717 63.913716 63.913716 63.913716 0 0 1 63.913717-63.913716zM173.577803 173.576871A63.913716 63.913716 0 1 1 128.518633 64.603985a63.913716 63.913716 0 0 1 45.05917 108.972886zM128.518633 959.396015a63.913716 63.913716 0 1 1 63.913716-63.913716 63.913716 63.913716 0 0 1-63.913716 63.913716z m766.964598 0a63.913716 63.913716 0 1 1 63.913716-63.913716 63.913716 63.913716 0 0 1-63.913716 63.913716z" fill="#38004D" p-id="1237"></path><path d="M575.914648 480.043142h-127.827433a31.956858 31.956858 0 0 1 0-63.913717h127.827433a31.956858 31.956858 0 0 1 0 63.913717zM575.914648 607.870575h-127.827433a31.956858 31.956858 0 0 1 0-63.913717h127.827433a31.956858 31.956858 0 0 1 0 63.913717z" fill="#9F85EC" p-id="1238"></path></svg>