<svg viewBox="0 0 1200 1200" xmlns:xlink="http://www.w3.org/1999/xlink" xmlns="http://www.w3.org/2000/svg" id="图层_1"><defs><style>.cls-1,.cls-11{fill:none;}.cls-2{fill:#ec653f;}.cls-3{clip-path:url(#clip-path);}.cls-4{fill:#fde9d1;stroke-width:14px;}.cls-4,.cls-5{stroke:#370911;}.cls-11,.cls-4,.cls-6{stroke-linecap:round;stroke-linejoin:round;}.cls-5{fill:#f9d9d0;stroke-miterlimit:10;stroke-width:10px;}.cls-13,.cls-6{fill:#fff;}.cls-6{stroke:#360810;}.cls-11,.cls-6{stroke-width:16px;}.cls-7{fill:#ea586f;}.cls-8{fill:#271618;}.cls-9{fill:#271d1f;}.cls-10{fill:#de717e;}.cls-11{stroke:#231815;}.cls-12{fill:#211d1e;}</style><clipPath id="clip-path"><circle r="462.13" cy="600" cx="600" class="cls-1"></circle></clipPath></defs><title>卡通头像</title><circle r="462.13" cy="600" cx="600" class="cls-2"></circle><g class="cls-3"><path d="M899.47,594c0,39.85-26.09,78.15-58.28,78.15s-58.27-32.3-58.27-72.15,33.09-72.15,65.27-72.15S899.47,554.15,899.47,594Z" class="cls-4"></path><path d="M418.08,600c0,39.85-25.77,72.15-57.56,72.15S302,633.85,302,594s19.85-66.15,51.64-66.15S418.08,560.15,418.08,600Z" class="cls-4"></path><ellipse ry="281.42" rx="242.17" cy="559.3" cx="601.11" class="cls-5"></ellipse><ellipse ry="384.61" rx="542.37" cy="1027.66" cx="600" class="cls-6"></ellipse><path d="M686.62,1014.1c-25,0-63.19-33.24-80.06-50.24l7.15-14.67c11.45-15.55,45.2-54,70.48-54a20.49,20.49,0,0,1,12,3.72c8.19,5.65,12.1,11.44,12,17.71-.3,13.58-19.18,28.45-25.77,32.59a8,8,0,0,0,.78,14c6.27,3,23.06,13.72,25.3,26.17,1.1,6.14-1.45,12.36-7.8,19C697,1012.24,692.42,1014.1,686.62,1014.1Z" class="cls-7"></path><path d="M684.19,887.2v16h0a12.58,12.58,0,0,1,7.47,2.3c3.92,2.71,8.59,6.81,8.51,10.94-.15,7.93-12.91,20.21-22,26a16,16,0,0,0,1.55,28c6.58,3.17,19.45,12.4,20.9,20.36.62,3.41-1.3,7.48-5.71,12.11-1.52,1.59-3.7,3.22-8.28,3.22-10.92,0-28.53-9-48.32-24.64-8.88-7-16.64-14.15-22-19.31l4.26-8.75a241.12,241.12,0,0,1,23.16-26.09c15.88-15.32,30.64-24.1,40.48-24.11v-16m0,0c-35.33,0-77.36,57.84-77.36,57.84l-9.91,20.35s53.12,56.71,89.7,56.71c7.52,0,14.34-2.4,19.86-8.18C738.06,980.79,686.67,956,686.67,956s55.67-35,14.09-63.66a28.57,28.57,0,0,0-16.57-5.14Z" class="cls-8"></path><path d="M513.38,1014.1c-5.81,0-10.41-1.86-14.07-5.7-6.36-6.68-8.91-12.91-7.79-19.06,2.27-12.53,19-23.12,25.29-26.14a8,8,0,0,0,.78-14c-7.07-4.46-25.49-19-25.77-32.61-.12-6.26,3.79-12,12-17.69a20.49,20.49,0,0,1,12-3.72c25.28,0,59,38.43,70.48,54l7.15,14.67c-16.88,17-55.05,50.24-80.06,50.24Z" class="cls-7"></path><path d="M515.81,903.2c9.84,0,24.6,8.79,40.48,24.11a240.78,240.78,0,0,1,23.16,26.09l4.26,8.75c-5.37,5.16-13.13,12.27-22,19.31-19.79,15.66-37.4,24.64-48.32,24.64-4.58,0-6.76-1.63-8.28-3.22-4.4-4.62-6.32-8.68-5.72-12.08,1.35-7.55,13.27-16.63,20.92-20.4a15.93,15.93,0,0,0,1.58-27.93c-9.15-5.82-21.91-18.1-22.06-26-.08-4.13,4.59-8.23,8.51-10.94a12.59,12.59,0,0,1,7.48-2.3m4.53,67.18h0m-4.53-83.18a28.57,28.57,0,0,0-16.57,5.14C457.66,921,513.33,956,513.33,956s-51.39,24.79-19.81,57.92c5.52,5.78,12.34,8.18,19.86,8.18,36.58,0,89.7-56.71,89.7-56.71L593.17,945s-42-57.84-77.36-57.84Z" class="cls-8"></path><path d="M600,993.91A37.92,37.92,0,1,1,637.92,956,38,38,0,0,1,600,993.91Z" class="cls-7"></path><path d="M600,926.08A29.92,29.92,0,1,1,570.08,956,30,30,0,0,1,600,926.08m0-16A45.92,45.92,0,1,0,645.92,956,45.92,45.92,0,0,0,600,910.08Z" class="cls-8"></path><ellipse ry="26.85" rx="26.84" cy="524.92" cx="518.24" class="cls-9"></ellipse><ellipse ry="26.85" rx="26.84" cy="524.92" cx="681.76" class="cls-9"></ellipse><circle r="49.53" cy="643.05" cx="450.15" class="cls-10"></circle><circle r="49.53" cy="643.05" cx="749.85" class="cls-10"></circle><polyline points="594.85 533.39 621 570.55 594.85 600" class="cls-11"></polyline><path d="M357.76,559.3c11.18,0,35.76,22.35,55.88,39.11s45.82,44.7,45.82,44.7,60.34-57,137.45-54.76,140.81,54.76,140.81,54.76,76-79.34,95-74.87,43.58,90.51,14.52,179.92S728.78,916.9,621.5,923.6,383.47,867.73,352.18,747,346.59,559.3,357.76,559.3Z" class="cls-12"></path><path d="M554.06,678.58h89.69a10.8,10.8,0,0,1,9.58,15.81c-7.79,14.7-24.49,33.88-57.9,30.64-31.34-3-45.1-18.65-51.12-30.95A10.8,10.8,0,0,1,554.06,678.58Z" class="cls-13"></path><path d="M852.25,398c-10.4-51.72-22.53-141.82-178.5-184s-175,40.51-175,40.51S467.52,241.11,384.34,283s-45.06,251.69-45.06,251.69L338.8,610l32.8-.63a250.89,250.89,0,0,1-8.06-63.2c0-133.78,104.75-242.23,234-242.23s234,108.45,234,242.23a250.76,250.76,0,0,1-6.16,55.42c19.09-3.74,21.21-10.35,25-24.33C860.69,538.88,862.65,449.68,852.25,398Z" class="cls-12"></path></g></svg>